HIERARCHY
ROOT Joint1
{
	OFFSET 0.000000 0.000000 0.000000
	CHANNELS 6 Xposition Yposition Zposition Xrotation Yrotation Zrotation
	JOINT Joint2
	{
		OFFSET -0.000000 0.000000 1.456275
		CHANNELS 6 Xposition Yposition Zposition Xrotation Yrotation Zrotation
		JOINT Joint3
		{
			OFFSET -0.000000 0.000002 1.471446
			CHANNELS 6 Xposition Yposition Zposition Xrotation Yrotation Zrotation
			JOINT Joint4
			{
				OFFSET 0.625745 0.000000 0.917755
				CHANNELS 6 Xposition Yposition Zposition Xrotation Yrotation Zrotation
				JOINT Joint5
				{
					OFFSET -0.629534 0.000001 0.940221
					CHANNELS 6 Xposition Yposition Zposition Xrotation Yrotation Zrotation
					JOINT Joint6
					{
						OFFSET -0.000001 0.113772 1.960660
						CHANNELS 6 Xposition Yposition Zposition Xrotation Yrotation Zrotation
						JOINT Joint7
						{
							OFFSET -0.669733 -0.113771 0.388340
							CHANNELS 6 Xposition Yposition Zposition Xrotation Yrotation Zrotation
							End Site
							{
								OFFSET 0.005509 0.005509 0.438980
							}
						}
					}
				}
			}
		}
	}
}
MOTION
Frames: 27
Frame Time: 0.041667
0.000000 0.000000 0.000000 -0.000000 1.019410 99.307078 -0.000000 0.000000 1.456275 -0.000000 3.354457 -0.000000 -0.000000 0.000002 1.471445 -0.000007 -1.133465 -102.014722 0.625744 0.000000 0.917755 0.000000 30.481539 0.000000 -0.629533 0.000001 0.940221 -0.000001 1.709741 100.885972 -0.000001 0.113771 1.960660 -88.303882 -151.791310 0.000000 -0.669733 -0.113771 0.388340 -0.789417 1.536146 -49.712798 
0.000000 0.000000 0.000000 -0.000000 1.019410 99.171826 -0.000000 0.000000 1.456275 -0.000000 3.288633 -0.000001 -0.000000 0.000002 1.471446 -0.000006 -1.133465 -101.875830 0.625745 0.000000 0.917755 -0.000000 30.623918 0.000001 -0.629534 0.000001 0.940221 -0.000001 1.709736 100.748562 -0.000001 0.113772 1.960660 -88.303875 -151.952339 -0.000000 -0.669733 -0.113771 0.388340 -0.784973 1.535785 -49.461433 
0.000000 0.000000 0.000000 -0.000000 1.019410 98.954524 -0.000000 0.000000 1.456275 -0.000000 3.182877 0.000000 -0.000000 0.000002 1.471446 -0.000006 -1.133465 -101.652674 0.625745 0.000000 0.917755 -0.000000 30.852668 0.000001 -0.629534 0.000001 0.940221 -0.000001 1.709738 100.527783 -0.000001 0.113772 1.960660 -88.303875 -152.211053 -0.000000 -0.669733 -0.113770 0.388340 -0.777810 1.535258 -49.057567 
0.000000 0.000000 0.000000 -0.000000 1.019410 98.661809 -0.000000 0.000000 1.456275 -0.000000 3.040421 -0.000000 -0.000000 0.000002 1.471445 -0.000006 -1.133465 -101.352064 0.625745 0.000000 0.917755 -0.000000 31.160791 0.000001 -0.629534 0.000001 0.940221 -0.000001 1.709738 100.230390 -0.000001 0.113772 1.960662 -88.303875 -152.559529 -0.000000 -0.669734 -0.113771 0.388340 -0.768174 1.534618 -48.513563 
0.000000 0.000000 0.000000 -0.000000 1.019410 98.300328 -0.000000 -0.000000 1.456275 0.000000 2.864499 -0.000000 -0.000000 0.000002 1.471445 -0.000006 -1.133465 -100.980857 0.625745 0.000000 0.917755 -0.000000 31.541305 0.000001 -0.629534 0.000001 0.940221 -0.000001 1.709737 99.863130 -0.000001 0.113772 1.960661 -88.303875 -152.989885 -0.000000 -0.669733 -0.113770 0.388339 -0.756265 1.533956 -47.841760 
0.000000 0.000000 0.000000 -0.000000 1.019410 97.876734 -0.000000 0.000000 1.456275 -0.000000 2.658345 -0.000001 -0.000000 0.000002 1.471445 -0.000006 -1.133465 -100.545849 0.625745 0.000000 0.917755 -0.000000 31.987197 0.000000 -0.629534 0.000001 0.940221 -0.000001 1.709730 99.432767 -0.000001 0.113772 1.960661 -88.303875 -153.494213 0.000000 -0.669733 -0.113771 0.388340 -0.742290 1.533361 -47.054495 
0.000000 0.000000 0.000000 -0.000000 1.019410 97.397657 -0.000000 0.000000 1.456275 0.000000 2.425191 -0.000001 -0.000000 0.000002 1.471446 -0.000006 -1.133465 -100.053870 0.625744 0.000000 0.917755 -0.000000 32.491504 0.000000 -0.629534 0.000001 0.940221 -0.000001 1.709737 98.946034 -0.000001 0.113772 1.960661 -88.303875 -154.064547 0.000000 -0.669733 -0.113771 0.388339 -0.726480 1.532919 -46.164132 
0.000000 0.000000 0.000000 -0.000000 1.019410 96.869745 -0.000000 0.000000 1.456275 -0.000000 2.168269 -0.000000 -0.000000 0.000002 1.471446 -0.000006 -1.133465 -99.511738 0.625745 0.000000 0.917755 -0.000000 33.047211 0.000001 -0.629534 0.000001 0.940221 -0.000001 1.709737 98.409687 -0.000001 0.113772 1.960660 -88.303875 -154.693048 -0.000000 -0.669733 -0.113771 0.388340 -0.709055 1.532711 -45.183013 
0.000000 0.000000 0.000000 -0.000000 1.019410 96.299377 -0.000000 -0.000000 1.456275 0.000000 1.890686 -0.000000 -0.000000 0.000002 1.471446 -0.000006 -1.133465 -98.926001 0.625745 0.000000 0.917755 -0.000001 33.647616 0.000000 -0.629534 0.000001 0.940221 -0.000001 1.709736 97.830207 -0.000001 0.113772 1.960660 -88.303882 -155.372091 0.000000 -0.669733 -0.113771 0.388341 -0.690226 1.532827 -44.122978 
0.000000 0.000000 0.000000 -0.000000 1.019410 95.691886 -0.000000 -0.000000 1.456275 0.000000 1.595038 0.000001 -0.000000 0.000002 1.471446 -0.000006 -1.133465 -98.302159 0.625745 0.000000 0.917755 -0.000001 34.287092 0.000000 -0.629534 0.000001 0.940221 -0.000001 1.709737 97.213010 -0.000001 0.113772 1.960661 -88.303882 -156.095313 0.000000 -0.669733 -0.113772 0.388341 -0.670174 1.533331 -42.993971 
0.000000 0.000000 0.000000 -0.000000 1.019410 95.052362 -0.000000 0.000000 1.456275 -0.000000 1.283793 0.000000 -0.000000 0.000002 1.471446 -0.000006 -1.133465 -97.645395 0.625745 0.000000 0.917755 -0.000000 34.960296 0.000001 -0.629533 0.000001 0.940221 -0.000001 1.709741 96.563254 -0.000001 0.113772 1.960661 -88.303882 -156.856715 0.000001 -0.669733 -0.113771 0.388340 -0.649086 1.534289 -41.805399 
0.000000 0.000000 0.000000 -0.000000 1.019410 94.385851 -0.000000 0.000000 1.456275 0.000000 0.959419 -0.000000 -0.000000 0.000002 1.471446 -0.000006 -1.133465 -96.960935 0.625745 0.000000 0.917755 -0.000000 35.661913 0.000001 -0.629533 0.000001 0.940220 -0.000001 1.709735 95.886096 -0.000001 0.113772 1.960660 -88.303882 -157.650219 -0.000000 -0.669733 -0.113770 0.388341 -0.627139 1.535751 -40.566689 
0.000000 0.000000 0.000000 -0.000000 1.019410 93.683612 -0.000000 0.000000 1.456275 -0.000000 0.617659 0.000000 -0.000000 0.000002 1.471445 -0.000006 -1.133465 -96.239783 0.625745 0.000000 0.917755 -0.000000 36.401118 0.000001 -0.629534 0.000001 0.940221 -0.000001 1.709735 95.172635 -0.000001 0.113771 1.960660 -88.303875 -158.486262 -0.000000 -0.669733 -0.113771 0.388339 -0.604050 1.537804 -39.261584 
0.000000 0.000000 0.000000 -0.000000 1.019410 92.881605 -0.000000 0.000000 1.456275 -0.000000 0.227341 0.000000 -0.000000 0.000002 1.471446 -0.000006 -1.133465 -95.416172 0.625745 0.000000 0.917755 -0.000000 37.245356 0.000000 -0.629534 0.000001 0.940221 -0.000001 1.709736 94.357813 -0.000001 0.113772 1.960661 -88.303875 -159.441095 -0.000000 -0.669733 -0.113772 0.388340 -0.577739 1.540794 -37.771049 
0.000000 0.000000 0.000000 -0.000000 1.019410 91.901957 -0.000000 0.000000 1.456275 -0.000000 -0.249430 0.000000 -0.000000 0.000002 1.471445 -0.000006 -1.133465 -94.410133 0.625745 0.000000 0.917755 -0.000000 38.276592 0.000000 -0.629534 0.000001 0.940221 -0.000001 1.709737 93.362505 -0.000001 0.113771 1.960660 -88.303882 -160.607404 0.000000 -0.669733 -0.113770 0.388340 -0.545727 1.545370 -35.950363 
0.000000 0.000000 0.000000 -0.000000 1.019410 90.706777 -0.000000 0.000000 1.456275 -0.000000 -0.831097 0.000000 -0.000000 0.000002 1.471446 -0.000006 -1.133465 -93.182755 0.625745 0.000000 0.917755 -0.000000 39.534706 0.000001 -0.629533 0.000001 0.940221 -0.000001 1.709739 92.148220 -0.000001 0.113771 1.960661 -88.303875 -162.030310 0.000000 -0.669733 -0.113771 0.388340 -0.506899 1.552326 -33.729100 
0.000000 0.000000 0.000000 -0.000000 1.019410 89.418070 -0.000000 0.000000 1.456275 -0.000000 -1.458280 -0.000000 -0.000000 0.000002 1.471446 -0.000006 -1.133465 -91.859330 0.625745 0.000000 0.917755 -0.000000 40.891277 0.000001 -0.629534 0.000001 0.940220 -0.000001 1.709740 90.838914 -0.000001 0.113771 1.960661 -88.303875 -163.564575 -0.000000 -0.669733 -0.113771 0.388340 -0.465360 1.561506 -31.334019 
0.000000 0.000000 0.000000 -0.000000 1.019410 88.163597 -0.000000 -0.000000 1.456275 0.000000 -2.068802 0.000000 -0.000000 0.000002 1.471445 -0.000005 -1.133465 -90.571054 0.625745 0.000000 0.917755 -0.000001 42.211812 0.000001 -0.629533 0.000001 0.940221 -0.000001 1.709736 89.564387 -0.000001 0.113772 1.960661 -88.303875 -165.058078 0.000000 -0.669733 -0.113771 0.388339 -0.425328 1.572103 -29.002561 
0.000000 0.000000 0.000000 -0.000000 1.019410 86.934176 -0.000000 0.000000 1.456275 -0.000000 -2.667129 -0.000000 -0.000000 0.000002 1.471446 -0.000005 -1.133465 -89.308521 0.625745 0.000000 0.917755 -0.000000 43.505969 0.000000 -0.629533 0.000001 0.940221 -0.000001 1.709740 88.315323 -0.000001 0.113772 1.960660 -88.303882 -166.521760 0.000000 -0.669733 -0.113771 0.388339 -0.386552 1.584061 -26.717663 
0.000000 0.000000 0.000000 -0.000000 1.019410 85.695583 -0.000000 0.000000 1.456275 -0.000000 -3.269920 0.000000 -0.000000 0.000002 1.471446 -0.000005 -1.133465 -88.036562 0.625745 0.000000 0.917755 -0.000000 44.809787 0.000001 -0.629534 0.000001 0.940221 -0.000001 1.709736 87.056935 -0.000001 0.113772 1.960660 -88.303875 -167.996344 0.000000 -0.669733 -0.113772 0.388340 -0.347992 1.597657 -24.415720 
0.000000 0.000000 0.000000 -0.000000 1.019410 84.450283 -0.000000 -0.000000 1.456275 0.000000 -3.875979 0.000000 -0.000000 0.000002 1.471445 -0.000005 -1.133465 -86.757719 0.625745 0.000000 0.917755 -0.000001 46.120654 0.000001 -0.629534 0.000001 0.940220 -0.000001 1.709735 85.791732 -0.000001 0.113772 1.960660 -88.303882 -169.478932 0.000001 -0.669733 -0.113771 0.388340 -0.309811 1.612878 -22.101293 
0.000000 0.000000 0.000000 -0.000000 1.019410 83.207434 -0.000000 -0.000000 1.456275 -0.000000 -4.480841 0.000000 -0.000000 0.000002 1.471446 -0.000005 -1.133466 -85.481395 0.625745 0.000000 0.917755 -0.000000 47.428950 0.000001 -0.629533 0.000001 0.940221 -0.000001 1.709736 84.529021 -0.000001 0.113772 1.960660 -88.303875 -170.958597 -0.000001 -0.669733 -0.113771 0.388340 -0.272347 1.629595 -19.791424 
0.000000 0.000000 0.000000 -0.000000 1.019410 81.966389 -0.000000 0.000000 1.456275 0.000000 -5.084828 0.000000 -0.000000 0.000002 1.471445 -0.000005 -1.133465 -84.206916 0.625745 0.000000 0.917755 -0.000000 48.735340 0.000001 -0.629534 0.000001 0.940221 -0.000001 1.709733 83.268141 -0.000001 0.113772 1.960661 -88.303875 -172.436117 0.000001 -0.669733 -0.113771 0.388340 -0.235637 1.647777 -17.484885 
0.000000 0.000000 0.000000 -0.000000 1.019410 80.724681 -0.000000 -0.000000 1.456275 0.000000 -5.689135 -0.000001 -0.000000 0.000002 1.471446 -0.000005 -1.133464 -82.931761 0.625744 0.000000 0.917755 -0.000001 50.042436 0.000001 -0.629533 0.000001 0.940221 -0.000000 1.709737 82.006591 -0.000001 0.113772 1.960661 -88.303875 -173.914416 0.000000 -0.669733 -0.113771 0.388340 -0.199675 1.667435 -15.177116 
0.000000 0.000000 0.000000 -0.000000 1.019410 79.482495 -0.000000 -0.000000 1.456275 0.000000 -6.293677 -0.000001 -0.000000 0.000002 1.471446 -0.000004 -1.133465 -81.656114 0.625745 0.000000 0.917755 -0.000001 51.350035 0.000001 -0.629533 0.000001 0.940221 -0.000001 1.709739 80.744550 -0.000001 0.113772 1.960660 -88.303875 -175.393288 0.000001 -0.669733 -0.113771 0.388339 -0.164517 1.688532 -12.868438 
0.000000 0.000000 0.000000 -0.000000 1.019410 78.240493 -0.000000 0.000000 1.456275 0.000000 -6.898134 0.000000 -0.000000 0.000002 1.471446 -0.000004 -1.133466 -80.380644 0.625745 0.000000 0.917755 -0.000001 52.657449 0.000001 -0.629534 0.000001 0.940222 -0.000000 1.709740 79.482679 -0.000001 0.113772 1.960661 -88.303875 -176.871956 0.000001 -0.669733 -0.113771 0.388341 -0.130241 1.711023 -10.560074 
0.000000 0.000000 0.000000 -0.000000 1.019410 76.998601 -0.000000 0.000000 1.456275 0.000000 -7.502526 0.000001 -0.000000 0.000002 1.471446 -0.000004 -1.133464 -79.105311 0.625745 0.000000 0.917755 -0.000001 53.964724 0.000001 -0.629534 0.000001 0.940221 -0.000001 1.709735 78.220959 -0.000001 0.113771 1.960660 -88.303875 -178.350473 0.000001 -0.669733 -0.113772 0.388340 -0.096906 1.734873 -8.251940 
